<svg width="97" height="32" viewBox="0 0 97 32" fill="none" xmlns="http://www.w3.org/2000/svg">
<path d="M24.1015 12.2017C23.8032 12.2851 23.5312 12.4431 23.311 12.6609C23.0908 12.8787 22.9298 13.149 22.8431 13.4464C22.7222 13.7599 22.6734 14.0967 22.7001 14.4317C22.7269 14.7667 22.8287 15.0913 22.9979 15.3817L25.7465 15.2377C25.7337 14.805 25.8787 14.3823 26.1546 14.0487L24.1015 12.2017Z" fill="#D6246E"/>
<path d="M31.5125 8.13141C31.1646 8.09558 30.816 8.19217 30.5362 8.40191C30.2564 8.61166 30.0658 8.91915 30.0026 9.26311C29.8508 9.9389 30.3946 10.0309 30.3611 11.012C30.3009 11.5587 30.081 12.0756 29.7289 12.4981C29.7289 12.4981 30.0916 10.7372 29.5186 10.2484C29.1733 9.94383 28.7495 9.74217 28.2953 9.66634C27.8412 9.5905 27.3748 9.64353 26.9493 9.8194C27.121 9.58527 27.3506 9.39985 27.6157 9.28136C27.8807 9.16287 28.172 9.1154 28.461 9.1436C28.6917 9.12689 28.9122 9.04245 29.0951 8.90086C29.2779 8.75926 29.4148 8.56684 29.4887 8.34771C29.5576 8.11414 29.6902 7.90442 29.8718 7.74216C30.0534 7.57991 30.2767 7.47156 30.5165 7.42932C30.9443 5.84172 29.0394 3.4612 26.883 3.63986C26.8722 4.75124 25.5618 5.40732 25.5618 5.40732C26.2872 4.91676 26.2054 3.6548 26.2054 3.6548C25.8227 2.93193 25.2523 2.32547 24.5543 1.89912C23.8563 1.47278 23.0563 1.24229 22.2384 1.23186C21.563 1.21573 20.8948 1.37464 20.2989 1.69314C19.9308 1.97995 19.7444 2.33189 19.9111 3.13914C20.1137 4.12265 21.3015 4.73332 22.2384 4.70404C21.8933 4.85213 21.5146 4.90454 21.1422 4.85576C20.7698 4.80697 20.4174 4.65879 20.122 4.42679C18.9748 3.62731 19.0351 3.25924 18.1885 3.53529C17.5247 3.78166 16.9109 4.14603 16.3768 4.61083C16.795 4.05562 17.3319 3.60079 17.9483 3.27956C18.8547 2.86129 19.1881 2.68204 19.1881 2.68204C19.0974 2.38831 19.1049 2.07303 19.2095 1.78396C19.3141 1.49489 19.5101 1.24779 19.7677 1.08009C18.9782 0.432607 18.0008 0.0572778 16.9809 0.00993478C16.2246 -0.0497567 15.4716 0.160926 14.8561 0.604466C13.9026 1.31376 13.2572 2.36159 13.0528 3.53231C12.8409 2.92172 12.8334 2.2588 13.0313 1.64355C11.9723 1.29611 10.8654 1.11706 9.75091 1.11295C7.27296 1.13361 4.89442 2.09025 3.09223 3.79105C1.29003 5.49185 0.197411 7.81107 0.033461 10.2837C0.033461 10.4743 0.0776774 11.226 0.817405 11.226C1.99571 11.226 2.53408 10.1504 2.8418 9.69332C2.95003 9.50723 3.09828 9.34754 3.27582 9.22581C3.45336 9.10407 3.65575 9.02333 3.86834 8.98944C3.53675 9.19386 3.28808 9.50889 3.16628 9.87889C3.04448 10.2489 3.05738 10.65 3.2027 11.0114C3.3642 11.4483 3.61023 11.8491 3.92673 12.1908C4.24323 12.5325 4.62399 12.8085 5.04724 13.003C5.04724 13.003 3.95856 13.3388 2.41816 11.4715C2.06538 11.832 1.59243 12.0501 1.08928 12.0846C0.363889 12.0846 0.140417 11.9448 0.0137429 13.0406C0.0095603 13.1404 0 13.239 0 13.3346C0 16.0234 2.39545 18.2074 5.34899 18.2074C5.51151 18.2074 5.67284 18.1996 5.82999 18.1847C5.96541 17.4569 6.34599 16.7975 6.90838 16.3163C7.47077 15.835 8.18104 15.5608 8.92095 15.5394C8.49837 15.6575 8.10885 15.8718 7.78284 16.1655C7.45684 16.4591 7.20319 16.8242 7.04176 17.2322C6.88419 17.6094 6.825 18.0205 6.86973 18.4268C6.91446 18.8331 7.06165 19.2215 7.29749 19.5554C7.82178 20.1972 8.48402 20.7126 9.23496 21.0631C9.98589 21.4137 10.8062 21.5905 11.6349 21.5804C12.8454 21.5869 14.0261 21.2047 15.0031 20.4899C15.0031 20.4899 14.2018 19.8637 14.534 18.2414C14.534 18.2414 14.8967 19.7424 15.9245 19.9874C16.9522 20.2324 18.2811 19.4663 19.883 21.6096C19.4373 21.2767 18.9302 21.035 18.3909 20.8987C17.8515 20.7623 17.2905 20.7338 16.7401 20.8149C16.2424 20.8948 15.7603 21.0522 15.3114 21.2816C16.0458 22.806 17.3476 23.9824 18.9384 24.559C19.7434 24.8684 20.6031 25.0101 21.4648 24.9755C22.3266 24.9409 23.1721 24.7306 23.9497 24.3576C23.7409 23.7813 23.7034 23.1569 23.8416 22.5597C24.0288 23.1512 24.4063 23.6643 24.9155 24.0189C25.4246 24.3735 26.0367 24.5497 26.6565 24.5201C27.8829 24.4537 29.0332 23.9052 29.8568 22.9941C30.1031 22.7471 30.2538 22.4209 30.2822 22.0733C30.2972 21.6294 30.109 21.0151 28.8864 21.2416C28.299 21.3031 27.7373 21.5147 27.2552 21.8558C27.5132 21.3258 27.9689 20.9181 28.5243 20.7205C29.4601 20.3847 29.5509 18.6985 28.9761 17.3804C28.9761 17.3804 30.0104 18.4517 29.9434 19.5237C29.9356 19.8518 29.9556 20.1801 30.0032 20.5048C30.2393 20.622 30.4493 20.7855 30.6206 20.9857C30.792 21.1859 30.9212 21.4187 31.0005 21.67C31.6957 21.5942 32.3461 21.2894 32.8492 20.8036C35.7627 18.0245 35.5631 11.5815 32.6699 8.6865C32.523 8.52234 32.3452 8.3888 32.1466 8.29354C31.948 8.19828 31.7325 8.14318 31.5125 8.13141ZM27.3974 15.6954C25.882 15.9116 24.3535 16.023 22.8228 16.0288L10.2044 11.4769C9.88982 11.124 9.67965 10.6905 9.59745 10.2249C9.51524 9.75927 9.56424 9.27999 9.73895 8.84066C9.87692 8.38777 10.1381 7.98215 10.4932 7.66909C10.8484 7.35603 11.2836 7.14786 11.7502 7.06782L24.3686 11.6221C24.3686 11.6221 27.3771 14.4466 27.6089 14.7119C27.8408 14.9772 27.9292 15.6022 27.3974 15.6954Z" fill="#D6246E"/>
<path d="M26.6284 25.8711C26.1812 25.8764 25.7529 26.0522 25.4308 26.3625C25.1088 26.6727 24.9172 27.0942 24.8953 27.5409C24.8733 27.9876 25.0226 28.4258 25.3127 28.7662C25.6028 29.1066 26.0118 29.3234 26.4563 29.3726C26.5134 29.3796 26.5709 29.3832 26.6284 29.3833C26.6849 29.3832 26.7414 29.3796 26.7975 29.3726C27.2418 29.3235 27.6507 29.1069 27.9408 28.7668C28.231 28.4268 28.3805 27.9889 28.3589 27.5424C28.3374 27.0959 28.1463 26.6744 27.8248 26.3639C27.5033 26.0533 27.0754 25.8771 26.6284 25.8711Z" fill="#D6246E"/>
<path d="M30.1735 31.9999C30.4247 32.0032 30.6711 31.9318 30.8816 31.7947C31.0921 31.6576 31.2571 31.461 31.3555 31.2299C31.454 30.9988 31.4816 30.7437 31.4347 30.4969C31.3878 30.2501 31.2686 30.0228 31.0923 29.8439C30.9159 29.6651 30.6904 29.5426 30.4443 29.4923C30.1982 29.4419 29.9427 29.4658 29.7102 29.561C29.4778 29.6562 29.2789 29.8183 29.1388 30.0268C28.9987 30.2353 28.9237 30.4808 28.9235 30.732C28.9223 30.8973 28.9537 31.0612 29.0159 31.2144C29.0781 31.3676 29.1698 31.5071 29.2859 31.6248C29.402 31.7426 29.5401 31.8363 29.6924 31.9006C29.8447 31.965 30.0082 31.9987 30.1735 31.9999Z" fill="#D6246E"/>
<path d="M50.5184 21.3521H48.543C47.2822 21.3521 46.6531 21.7387 46.6531 22.6314C46.6531 23.5241 47.2822 23.8951 48.543 23.8951H49.4883C49.5075 24.2148 49.459 24.5349 49.3459 24.8346C49.2328 25.1342 49.0577 25.4065 48.8321 25.6338C48.6065 25.8611 48.3354 26.0381 48.0366 26.1534C47.7378 26.2686 47.418 26.3195 47.0982 26.3026C45.3403 26.3026 44.1459 24.8721 44.1459 22.5143C44.1459 20.2085 45.3068 18.8449 47.1143 18.8449C48.7402 18.8449 49.603 20.0059 50.4007 20.0059C50.7197 19.981 51.0168 19.8338 51.2299 19.5951C51.443 19.3564 51.5556 19.0446 51.5443 18.7248C51.5443 17.5465 49.8193 16.2338 47.1992 16.2338C43.5818 16.2338 41.2425 18.6758 41.2425 22.5639C41.2425 26.3695 43.6153 28.9113 46.8831 28.9113C50.2513 28.9113 52.3904 26.5039 52.3904 23.1704C52.391 21.8588 51.8282 21.3521 50.5184 21.3521Z" fill="#D6246E"/>
<path d="M59.759 23.5569C60.5511 23.4762 61.2829 23.0977 61.8065 22.4979C62.3301 21.8981 62.6063 21.1219 62.5793 20.3262C62.5793 18.1201 60.9863 16.5887 58.0836 16.5887H55.9923C54.4985 16.5887 54.1328 17.179 54.1328 18.5067V26.7734C54.1328 28.0718 54.5648 28.7088 55.4778 28.7088C56.3908 28.7088 56.8198 28.0718 56.8198 26.7734V23.8276L59.955 27.8184C60.4533 28.4411 60.8668 28.7954 61.3998 28.7954C61.5688 28.7984 61.7366 28.7673 61.8933 28.7038C62.0499 28.6404 62.1921 28.546 62.3114 28.4262C62.4306 28.3065 62.5244 28.1638 62.5872 28.0069C62.65 27.85 62.6804 27.6821 62.6767 27.5131C62.6012 26.9145 62.3198 26.3609 61.8808 25.947L59.759 23.5569ZM58.0663 22.0094H56.821V19.0983H58.1003C59.1759 19.0983 59.7734 19.636 59.7734 20.5287C59.7746 21.4549 59.1615 22.0094 58.0663 22.0094Z" fill="#D6246E"/>
<path d="M70.558 18.003C70.45 17.5586 70.1981 17.1624 69.8414 16.8762C69.4847 16.59 69.0434 16.4299 68.5862 16.4208C67.5889 16.4208 66.9615 16.9926 66.5295 18.187L63.4577 26.6389C63.3645 26.8923 63.3193 27.1608 63.3244 27.4307C63.3163 27.6015 63.3435 27.7722 63.4045 27.932C63.4655 28.0918 63.5589 28.2372 63.6789 28.3592C63.7988 28.4811 63.9427 28.5769 64.1014 28.6406C64.2602 28.7042 64.4304 28.7344 64.6013 28.7291C65.1827 28.7291 65.6302 28.3227 65.8967 27.5149L66.2941 26.3031H70.656L70.9864 27.4145C71.2529 28.3048 71.6992 28.7434 72.3977 28.7434C72.5706 28.7535 72.7438 28.7277 72.9062 28.6676C73.0686 28.6076 73.2169 28.5145 73.3416 28.3943C73.4663 28.2742 73.5648 28.1295 73.6308 27.9694C73.6969 27.8093 73.7291 27.6373 73.7254 27.4641C73.7098 27.1701 73.6481 26.8804 73.5426 26.6055L70.558 18.003ZM67.0577 23.793L68.5175 19.3492L69.8798 23.793H67.0577Z" fill="#D6246E"/>
<path d="M79.3535 16.5887H76.9305C75.4367 16.5887 75.0722 17.179 75.0722 18.5067V26.7734C75.0722 28.0718 75.503 28.7088 76.4161 28.7088C77.3291 28.7088 77.7599 28.0718 77.7599 26.7734V24.7191H79.5674C82.1719 24.7191 83.6646 23.1715 83.6646 20.6644C83.6628 18.187 82.0566 16.5887 79.3535 16.5887ZM78.9203 22.2454H77.7593V19.0971H78.9203C80.1667 19.0971 80.7624 19.5846 80.7624 20.6632C80.7624 21.7046 80.1482 22.2454 78.9203 22.2454Z" fill="#D6246E"/>
<path d="M94.4312 16.4381C93.5194 16.4381 93.0874 17.0781 93.0874 18.3735V21.2033H88.1453V18.3735C88.1453 17.0781 87.7133 16.4381 86.8003 16.4381C85.8873 16.4381 85.4583 17.0781 85.4583 18.3735V26.7734C85.4583 28.0718 85.8873 28.7088 86.8003 28.7088C87.7133 28.7088 88.1453 28.0718 88.1453 26.7734V23.726H93.0874V26.7734C93.0874 28.0718 93.5194 28.7088 94.4312 28.7088C95.3431 28.7088 95.7763 28.0718 95.7763 26.7734V18.3735C95.7763 17.0804 95.3443 16.4381 94.4312 16.4381Z" fill="#D6246E"/>
<path d="M46.9924 11.0945L50.3589 3.53648C50.433 3.35144 50.5199 3.17176 50.6188 2.99871C50.6881 2.87636 50.7766 2.76599 50.8811 2.67187C50.9701 2.59425 51.0752 2.53732 51.1888 2.50516C51.3153 2.47313 51.4456 2.45826 51.576 2.46094C51.7081 2.45969 51.8394 2.48173 51.9638 2.52607C52.0834 2.56822 52.1916 2.63756 52.2799 2.72863C52.3751 2.82856 52.4482 2.94747 52.4944 3.07758C52.5486 3.23945 52.5747 3.40942 52.5715 3.5801V12.1844C52.5767 12.2652 52.5626 12.3462 52.5304 12.4206C52.4982 12.495 52.4488 12.5606 52.3862 12.6122C52.2718 12.7046 52.1294 12.7554 51.9823 12.7562C51.8392 12.7569 51.7005 12.7063 51.5915 12.6134C51.5299 12.5612 51.4814 12.495 51.4503 12.4204C51.4191 12.3459 51.4061 12.265 51.4123 12.1844V3.70976L47.7322 11.9591C47.67 12.1283 47.5574 12.2743 47.4095 12.3774C47.2785 12.4675 47.1234 12.5162 46.9644 12.5172C46.8119 12.5174 46.663 12.4709 46.5377 12.3839C46.3908 12.2788 46.2794 12.1314 46.2181 11.9615L42.5499 3.76712V12.1832C42.5551 12.2639 42.5412 12.3448 42.5092 12.4192C42.4772 12.4935 42.4281 12.5592 42.3659 12.611C42.2508 12.7031 42.1081 12.7538 41.9607 12.755C41.8169 12.7554 41.6776 12.7048 41.5676 12.6122C41.5061 12.56 41.4579 12.4941 41.4267 12.4197C41.3956 12.3454 41.3824 12.2648 41.3883 12.1844V3.5795C41.385 3.40867 41.4117 3.2386 41.4672 3.07699C41.5124 2.9467 41.5852 2.82768 41.6805 2.72804C41.7695 2.63757 41.878 2.56869 41.9978 2.52667C42.122 2.4812 42.2533 2.45853 42.3856 2.45975C42.5185 2.45829 42.651 2.47395 42.7799 2.50636C42.899 2.53916 43.0098 2.59679 43.105 2.67545C43.2162 2.77162 43.3112 2.88499 43.3864 3.01126C43.4895 3.18411 43.5808 3.36378 43.6595 3.54903L46.956 11.0933L46.9924 11.0945Z" fill="#D6246E"/>
<path d="M56.0227 3.11167C56.0235 3.19901 56.006 3.28554 55.9713 3.3657C55.9366 3.44586 55.8855 3.51788 55.8214 3.57713C55.7442 3.64685 55.6538 3.70046 55.5556 3.73483C55.4574 3.7692 55.3534 3.78364 55.2496 3.7773C55.1464 3.78338 55.043 3.76881 54.9456 3.73443C54.8481 3.70006 54.7585 3.64659 54.6819 3.57713C54.6179 3.51742 54.5668 3.44518 54.5319 3.3649C54.497 3.28462 54.479 3.19801 54.479 3.11047C54.479 3.02293 54.497 2.93633 54.5319 2.85605C54.5668 2.77576 54.6179 2.70352 54.6819 2.64381C54.8447 2.51691 55.0452 2.448 55.2516 2.448C55.4581 2.448 55.6586 2.51691 55.8214 2.64381C55.8856 2.70357 55.9366 2.77602 55.9713 2.85656C56.0059 2.93711 56.0235 3.02398 56.0227 3.11167ZM54.6861 6.17993C54.6798 6.09871 54.6928 6.01716 54.7239 5.94189C54.7551 5.86662 54.8035 5.79975 54.8654 5.74672C54.9768 5.65443 55.1168 5.60355 55.2615 5.60272C55.332 5.60205 55.4021 5.6142 55.4682 5.63857C55.5347 5.66211 55.5957 5.6989 55.6475 5.74672C55.702 5.79702 55.7456 5.85805 55.7754 5.92598C55.8099 6.00588 55.8269 6.09229 55.825 6.17933V12.17C55.8305 12.252 55.8168 12.3341 55.7848 12.4098C55.7528 12.4854 55.7036 12.5525 55.6409 12.6056C55.5296 12.7003 55.3885 12.7528 55.2424 12.7538C55.1011 12.7548 54.9642 12.7048 54.857 12.6128C54.7965 12.557 54.7497 12.4881 54.7201 12.4113C54.6904 12.3345 54.6788 12.252 54.6861 12.17V6.17993Z" fill="#D6246E"/>
<path d="M57.6809 6.1357C57.6766 6.06017 57.691 5.98475 57.7229 5.91616C57.7548 5.84756 57.8032 5.78792 57.8637 5.74253C57.9767 5.65549 58.1155 5.6086 58.2581 5.60929C58.3618 5.59697 58.4667 5.61847 58.5573 5.67057C58.6478 5.72268 58.7191 5.80261 58.7606 5.89849C58.847 6.18906 58.8674 6.49528 58.8203 6.79476C58.9111 6.58311 59.044 6.39219 59.2111 6.23369C59.3824 6.07302 59.5726 5.93378 59.7776 5.81902C59.9917 5.69811 60.2201 5.60457 60.4575 5.54057C60.6965 5.47552 60.943 5.44237 61.1907 5.44198C61.5204 5.44059 61.8481 5.49473 62.1599 5.60212C62.4609 5.70696 62.7353 5.87667 62.9635 6.09925C63.2078 6.34462 63.3956 6.64029 63.5138 6.96565C63.6587 7.37391 63.7274 7.80531 63.7164 8.23837V12.2083C63.7223 12.2861 63.7091 12.3643 63.6778 12.4358C63.6466 12.5074 63.5983 12.5702 63.5371 12.6188C63.4241 12.7074 63.2847 12.7557 63.141 12.7562C62.9998 12.756 62.863 12.7075 62.7532 12.6188C62.6941 12.5688 62.6476 12.5055 62.6175 12.4342C62.5874 12.3629 62.5745 12.2855 62.5799 12.2083V8.14516C62.5867 7.87177 62.5405 7.59966 62.4437 7.34388C62.3611 7.13539 62.2378 6.94546 62.081 6.7852C61.9343 6.63634 61.7569 6.52132 61.5612 6.4482C61.3653 6.37605 61.1581 6.33942 60.9493 6.34005C60.6673 6.33755 60.3872 6.38676 60.1229 6.48525C59.875 6.57693 59.6462 6.71389 59.4483 6.88917C59.2398 7.07891 59.0817 7.3175 58.9882 7.58349C58.8711 7.90905 58.8146 8.25333 58.8215 8.59927V12.2083C58.827 12.2861 58.8135 12.3641 58.7823 12.4355C58.7511 12.507 58.7031 12.5699 58.6423 12.6188C58.5291 12.7072 58.3897 12.7555 58.2461 12.7562C58.1049 12.7562 57.968 12.7077 57.8583 12.6188C57.7988 12.569 57.752 12.5059 57.7217 12.4345C57.6913 12.3632 57.6784 12.2856 57.6839 12.2083V6.1357H57.6809Z" fill="#D6246E"/>
<path d="M71.7446 12.2125C71.7507 12.2895 71.738 12.3669 71.7076 12.438C71.6773 12.5091 71.6301 12.5717 71.5702 12.6206C71.4598 12.7077 71.323 12.7547 71.1824 12.7538C71.1123 12.7539 71.0427 12.7436 70.9756 12.7234C70.9097 12.7013 70.8488 12.6663 70.7964 12.6206C70.7421 12.5744 70.6973 12.5182 70.6643 12.4551C70.6289 12.3846 70.6085 12.3074 70.6046 12.2286V11.9036C70.6046 11.8157 70.6046 11.7398 70.5968 11.6717V11.5636C70.3192 12.0014 69.9311 12.3583 69.4717 12.5985C69.0289 12.8135 68.5417 12.9212 68.0496 12.9128C67.5834 12.9255 67.1223 12.8133 66.7141 12.5877C66.347 12.3757 66.034 12.0814 65.7999 11.7279C65.5556 11.3575 65.3775 10.9475 65.2735 10.5161C65.0461 9.60737 65.0461 8.65656 65.2735 7.74781C65.3775 7.32385 65.5581 6.92247 65.8065 6.56353C66.0492 6.22288 66.3671 5.94276 66.7357 5.74493C67.1548 5.52953 67.6215 5.42309 68.0926 5.43542C68.3382 5.43626 68.583 5.4635 68.8228 5.51668C69.0644 5.56831 69.2986 5.6498 69.5201 5.75927C69.7406 5.86797 69.9462 6.00453 70.1319 6.16558C70.3217 6.33265 70.4821 6.53039 70.6064 6.75055V2.99575C70.6005 2.92027 70.6134 2.84452 70.6438 2.77521C70.6743 2.7059 70.7213 2.64517 70.7809 2.5984C70.8924 2.51134 71.0302 2.46478 71.1716 2.46635C71.3143 2.46673 71.4528 2.51396 71.566 2.60079C71.6261 2.64661 71.6739 2.70661 71.7052 2.77542C71.7365 2.84424 71.7503 2.91973 71.7452 2.99515L71.7446 12.2125ZM68.3985 6.33588C68.0529 6.32356 67.7104 6.40623 67.4085 6.57488C67.146 6.73087 66.9247 6.94744 66.7631 7.20646C66.5949 7.47811 66.4757 7.77725 66.4112 8.09019C66.3404 8.41789 66.3048 8.7522 66.3048 9.08745C66.3048 9.27925 66.3168 9.49795 66.3407 9.73815C66.3623 9.96971 66.4037 10.199 66.4644 10.4235C66.5225 10.6354 66.6012 10.8411 66.6992 11.0378C66.7946 11.2252 66.9188 11.3966 67.0673 11.5456C67.2157 11.6942 67.3919 11.8119 67.5859 11.8922C67.808 11.9806 68.0455 12.0236 68.2844 12.0189C68.6682 12.0331 69.0495 11.9509 69.3934 11.7799C69.6796 11.6298 69.9227 11.4091 70.0997 11.1387C70.2815 10.8493 70.4071 10.5282 70.4701 10.1923C70.5425 9.81398 70.5781 9.42957 70.5765 9.04443C70.5782 8.7008 70.5401 8.35814 70.463 8.02327C70.3927 7.71413 70.2672 7.42021 70.0925 7.15567C69.9209 6.90411 69.6898 6.69885 69.4197 6.55815C69.1031 6.40209 68.7532 6.32578 68.4003 6.33588H68.3985Z" fill="#D6246E"/>
<path d="M77.8489 5.60091L77.9409 3.56397C77.9429 3.49369 77.961 3.42482 77.9939 3.36266C78.0267 3.3005 78.0734 3.24671 78.1303 3.20546C78.2373 3.12167 78.3691 3.07566 78.505 3.0746C78.6209 3.07363 78.7332 3.11483 78.8211 3.19052C78.8696 3.23602 78.9071 3.29192 78.9309 3.35401C78.9547 3.4161 78.9641 3.48278 78.9585 3.54903V5.60091H80.2342C80.2978 5.5963 80.3616 5.60629 80.4207 5.63011C80.4798 5.65393 80.5327 5.69095 80.5754 5.73834C80.6481 5.82231 80.6884 5.92957 80.6889 6.04068C80.6889 6.14956 80.6485 6.25456 80.5754 6.33526C80.5317 6.38095 80.4785 6.41638 80.4195 6.43901C80.3605 6.46163 80.2972 6.47089 80.2342 6.46612H78.9579V9.81581C78.9579 10.249 78.9633 10.6051 78.9728 10.8794C78.9751 11.1074 79.0087 11.334 79.0726 11.5528C79.1137 11.7006 79.2077 11.8282 79.3367 11.9113C79.4909 11.9904 79.6633 12.0271 79.8363 12.0177C79.9672 12.0164 80.0978 12.0052 80.227 11.9842C80.3423 11.9642 80.459 11.9534 80.576 11.9519C80.6338 11.948 80.6918 11.9574 80.7454 11.9793C80.7991 12.0013 80.847 12.0353 80.8855 12.0786C80.948 12.1471 80.9847 12.2352 80.9895 12.3278C80.9919 12.384 80.9817 12.44 80.9595 12.4917C80.9374 12.5434 80.9039 12.5895 80.8616 12.6265C80.7616 12.7081 80.6465 12.769 80.5228 12.8058C80.3788 12.848 80.2312 12.877 80.0818 12.8924C79.9271 12.9056 79.7938 12.9139 79.6791 12.9139C79.3984 12.9195 79.1189 12.8767 78.8527 12.7873C78.6246 12.7059 78.4238 12.5622 78.2731 12.3726C78.1046 12.1487 77.988 11.8901 77.932 11.6155C77.8521 11.233 77.8151 10.8429 77.8214 10.4522V6.46612H76.9598C76.8961 6.47087 76.8322 6.46138 76.7727 6.43833C76.7131 6.41528 76.6595 6.37926 76.6156 6.33287C76.5393 6.25211 76.4968 6.14522 76.4968 6.03411C76.4968 5.923 76.5393 5.81611 76.6156 5.73535C76.6596 5.68907 76.7132 5.65311 76.7727 5.63007C76.8323 5.60703 76.8961 5.59748 76.9598 5.60211H77.8489V5.60091Z" fill="#D6246E"/>
<path d="M86.8153 8.09793C86.8209 7.82966 86.7753 7.56277 86.6808 7.3116C86.602 7.10174 86.4782 6.91167 86.3181 6.75471C86.1698 6.6129 85.9924 6.50505 85.7983 6.43863C85.6019 6.369 85.3949 6.33383 85.1864 6.33466C84.905 6.33273 84.6254 6.37963 84.3601 6.47328C84.1074 6.56251 83.8769 6.70517 83.6843 6.89155C83.484 7.08992 83.3278 7.32835 83.226 7.59124C83.1059 7.91465 83.0485 8.25796 83.0569 8.60284V12.2059C83.0626 12.2835 83.0493 12.3614 83.018 12.4328C82.9868 12.5041 82.9386 12.5667 82.8776 12.6152C82.7654 12.7043 82.6265 12.7531 82.4833 12.7538C82.3422 12.7542 82.2054 12.7052 82.0967 12.6152C82.0371 12.5658 81.9901 12.5029 81.9597 12.4317C81.9294 12.3605 81.9165 12.2831 81.9222 12.2059V2.99572C81.9174 2.92033 81.9312 2.84491 81.9625 2.77613C81.9938 2.70735 82.0415 2.64733 82.1015 2.60136C82.2153 2.5146 82.3544 2.46739 82.4976 2.46692C82.638 2.46663 82.7744 2.51309 82.8854 2.59897C82.9444 2.6461 82.9909 2.70696 83.0209 2.77623C83.0509 2.8455 83.0635 2.92107 83.0575 2.99632V6.79833C83.1515 6.58123 83.2848 6.38333 83.4507 6.21456C83.6172 6.04492 83.8081 5.90112 84.0171 5.78793C84.2297 5.67118 84.457 5.58336 84.6929 5.52681C84.9337 5.46939 85.1803 5.44031 85.4278 5.44017C85.7565 5.43854 86.0832 5.4904 86.3952 5.59374C86.6958 5.69257 86.9707 5.85685 87.2001 6.07474C87.445 6.31247 87.6336 6.60196 87.7522 6.92202C87.8971 7.32759 87.9657 7.75644 87.9547 8.18697V12.2071C87.9602 12.2852 87.9465 12.3636 87.9146 12.4351C87.8827 12.5067 87.8337 12.5694 87.7719 12.6176C87.6594 12.706 87.5206 12.7544 87.3775 12.755C87.2363 12.7552 87.0993 12.7067 86.9898 12.6176C86.9303 12.5678 86.8834 12.5047 86.8531 12.4333C86.8228 12.362 86.8098 12.2844 86.8153 12.2071V8.09793Z" fill="#D6246E"/>
<path d="M96.1043 8.95896C96.1058 9.06547 96.0694 9.16904 96.0015 9.25115C95.956 9.29738 95.9005 9.33269 95.8393 9.35442C95.7782 9.37616 95.7129 9.38375 95.6484 9.37663H90.5581C90.5628 9.77857 90.6293 10.1774 90.7553 10.5591C90.8606 10.8673 91.0385 11.1455 91.2739 11.3705C91.4939 11.5806 91.7524 11.7462 92.0352 11.8581C92.3254 11.9684 92.6336 12.0235 92.944 12.0206C93.3034 12.0183 93.6597 11.9534 93.9968 11.8288C94.3737 11.6898 94.7305 11.5015 95.058 11.269C95.1037 11.2328 95.1558 11.2056 95.2116 11.1889C95.2565 11.1746 95.3032 11.167 95.3502 11.1662C95.3993 11.1639 95.4483 11.1725 95.4937 11.1914C95.539 11.2103 95.5796 11.2391 95.6125 11.2755C95.6786 11.3457 95.7144 11.4391 95.7123 11.5355C95.7119 11.5998 95.6978 11.6633 95.6709 11.7217C95.644 11.7801 95.6049 11.8321 95.5564 11.8743C95.3678 12.057 95.1589 12.2173 94.9337 12.3523C94.719 12.4822 94.4918 12.5903 94.2556 12.6749C94.0261 12.7546 93.7902 12.8146 93.5505 12.8542C93.3196 12.8923 93.086 12.9123 92.852 12.9139C92.3878 12.9169 91.9274 12.83 91.4962 12.6582C91.078 12.4917 90.6994 12.2393 90.3848 11.9173C90.0583 11.5778 89.8035 11.1761 89.6355 10.736C89.4472 10.2365 89.3546 9.70603 89.3625 9.17228C89.3609 8.69063 89.4343 8.21166 89.58 7.75257C89.7163 7.31828 89.9348 6.91421 90.2235 6.56232C90.5121 6.21596 90.8723 5.93627 91.2793 5.74252C91.7357 5.53239 92.2338 5.42841 92.7361 5.43838C93.2457 5.42703 93.7525 5.51806 94.2263 5.70607C94.6248 5.86892 94.9805 6.12119 95.266 6.44341C95.5451 6.76721 95.7535 7.14576 95.8778 7.55479C96.0181 8.01007 96.0944 8.48266 96.1043 8.95896ZM94.9857 8.6124C94.9675 8.29668 94.9041 7.9852 94.7975 7.68744C94.7037 7.42036 94.5575 7.17474 94.3673 6.96504C94.1782 6.76085 93.9459 6.60142 93.6873 6.49838C93.3887 6.38491 93.071 6.33013 92.7516 6.33705C92.4592 6.33319 92.1696 6.39442 91.9037 6.51631C91.6514 6.63473 91.4259 6.8035 91.2411 7.01225C91.0527 7.22765 90.9013 7.47276 90.7929 7.73764C90.6782 8.01623 90.6084 8.3113 90.5862 8.61181L94.9857 8.6124Z" fill="#D6246E"/>
</svg>
